<svg id="Layer_1" data-name="Layer 1" xmlns="http://www.w3.org/2000/svg" viewBox="0 0 905 500"><defs><style>.cls-1{fill:#0071bc;}.cls-2,.cls-3{font-size:55px;font-family:Impact;}.cls-2{fill:#fff;}</style></defs><title>back4</title><ellipse class="cls-1" cx="453" cy="527" rx="494" ry="332"/><text class="cls-2" transform="translate(144.13 335.71) rotate(-29.3)">U</text><text class="cls-2" transform="translate(169.96 321.2) rotate(-26.65)">N</text><text class="cls-2" transform="translate(196.32 308.1) rotate(-24.6)">I</text><text class="cls-2" transform="matrix(0.92, -0.38, 0.38, 0.92, 210.37, 301.53)">V</text><text class="cls-2" transform="translate(236.59 290.69) rotate(-20.21)">E</text><text class="cls-2" transform="translate(257.63 282.86) rotate(-17.76)">R</text><text class="cls-2" transform="translate(285.45 274.02) rotate(-15.35)">Z</text><text class="cls-2" transform="matrix(0.97, -0.22, 0.22, 0.97, 307.18, 268)">A</text><text class="cls-2" transform="matrix(0.98, -0.19, 0.19, 0.98, 334.12, 261.98)"> </text><text class="cls-2" transform="translate(343.29 260.01) rotate(-9.21)">N</text><text class="cls-2" transform="translate(372.24 255.33) rotate(-6.46)">A</text><text class="cls-2" transform="translate(399.69 252.35) rotate(-4.68)"> </text><text class="cls-2" transform="translate(409.06 251.45) rotate(-2.91)">P</text><text class="cls-2" transform="matrix(1, 0, 0, 1, 436.11, 249.94)">R</text><text class="cls-2" transform="matrix(1, 0.03, -0.03, 1, 465.42, 250.03)">I</text><text class="cls-2" transform="matrix(1, 0.08, -0.08, 1, 480.84, 250.26)">M</text><text class="cls-2" transform="translate(519.58 253.44) rotate(7.83)">O</text><text class="cls-2" transform="matrix(0.98, 0.19, -0.19, 0.98, 548.86, 257.46)">R</text><text class="cls-2" transform="matrix(0.97, 0.23, -0.23, 0.97, 577.51, 262.87)">S</text><text class="cls-2" transform="matrix(0.96, 0.28, -0.28, 0.96, 604.72, 269.35)">K</text><text class="cls-2" transform="translate(632.66 277.53) rotate(18.64)">E</text><text class="cls-2" transform="translate(653.91 284.47) rotate(21.51)">M</text><text class="cls-3" transform="translate(597.75 347.43) rotate(12.56)">F</text><text class="cls-3" transform="matrix(0.97, 0.26, -0.26, 0.97, 617.65, 351.76)">A</text><text class="cls-3" transform="matrix(0.95, 0.32, -0.32, 0.95, 644.1, 358.65)">M</text><text class="cls-3" transform="matrix(0.93, 0.38, -0.38, 0.93, 680.86, 371.12)">N</text><text class="cls-3" transform="matrix(0.91, 0.42, -0.42, 0.91, 707.98, 382.35)">I</text><text class="cls-3" transform="translate(722.08 388.72) rotate(26.96)">T</text></svg>