<svg id="Layer_1" data-name="Layer 1" xmlns="http://www.w3.org/2000/svg" viewBox="0 0 905 500"><defs><style>.cls-1{fill:#0071bc;}</style></defs><title>back2</title><path class="cls-1" d="M-.5,264.5c13.77-12.49,33.57-25.95,56-24,25.88,2.25,30.18,22.83,57,29,34.17,7.86,50.58-20.16,93-25,41-4.68,44.32,24.12,88,24s49.43-25.3,88-22c40.18,3.44,43.87,31.63,80,32,38.82.4,44.29-32,85-34,41.57-2,49.26,31.17,90,29,42.77-2.28,49.37-39.64,87-38,38.62,1.69,44.4,41.6,84,43,33,1.16,42.81-26.1,79-28,30.34-1.59,55.83,15.88,72,30l-13,268H-59.5Z"/></svg>