<svg id="Layer_1" data-name="Layer 1" xmlns="http://www.w3.org/2000/svg" viewBox="0 0 905 500"><defs><style>.cls-1{font-size:55px;fill:#fff;font-family:Impact;}.cls-2{fill:#3fa9f5;}.cls-3{fill:#009245;}.cls-4{fill:#fdfdfd;}.cls-5{fill:#060505;}.cls-6{fill:#0e0e0e;}.cls-7{fill:#0f0f0f;}.cls-8{fill:#111;}.cls-9{fill:#121212;}.cls-10{fill:#171717;}.cls-11{fill:#b19366;}.cls-12{fill:#7c7c7c;}.cls-13{fill:#d2011b;}.cls-14{fill:#fbfbfb;}.cls-15{fill:#fafafa;}.cls-16{fill:#f9f9f9;}.cls-17{fill:#f6f6f6;}.cls-18{fill:#f7f7f7;}.cls-19{fill:#fbc400;}.cls-20{fill:#f1f1f1;}.cls-21{fill:#a9a9a9;}.cls-22{fill:#efefef;}.cls-23{fill:#f3f3f3;}.cls-24{fill:#ececec;}.cls-25{fill:#ebebeb;}.cls-26{fill:#757575;}.cls-27{fill:#070604;}.cls-28{fill:#f4f4f4;}.cls-29{fill:#e5e5e5;}.cls-30{fill:#fbecee;}</style></defs><title>homeBackground</title><text class="cls-1" transform="translate(144.13 335.71) rotate(-29.3)">U</text><text class="cls-1" transform="translate(169.96 321.2) rotate(-26.65)">N</text><text class="cls-1" transform="translate(196.32 308.1) rotate(-24.6)">I</text><text class="cls-1" transform="matrix(0.92, -0.38, 0.38, 0.92, 210.37, 301.53)">V</text><text class="cls-1" transform="translate(236.59 290.69) rotate(-20.21)">E</text><text class="cls-1" transform="translate(257.63 282.86) rotate(-17.76)">R</text><text class="cls-1" transform="translate(285.45 274.02) rotate(-15.35)">Z</text><text class="cls-1" transform="matrix(0.97, -0.22, 0.22, 0.97, 307.18, 268)">A</text><text class="cls-1" transform="matrix(0.98, -0.19, 0.19, 0.98, 334.12, 261.98)"> </text><text class="cls-1" transform="translate(343.29 260.01) rotate(-9.21)">N</text><text class="cls-1" transform="translate(372.24 255.33) rotate(-6.46)">A</text><text class="cls-1" transform="translate(399.69 252.35) rotate(-4.68)"> </text><text class="cls-1" transform="translate(409.06 251.45) rotate(-2.91)">P</text><text class="cls-1" transform="matrix(1, 0, 0, 1, 436.11, 249.94)">R</text><text class="cls-1" transform="matrix(1, 0.03, -0.03, 1, 465.42, 250.03)">I</text><text class="cls-1" transform="matrix(1, 0.08, -0.08, 1, 480.84, 250.26)">M</text><text class="cls-1" transform="translate(519.58 253.44) rotate(7.83)">O</text><text class="cls-1" transform="matrix(0.98, 0.19, -0.19, 0.98, 548.86, 257.46)">R</text><text class="cls-1" transform="matrix(0.97, 0.23, -0.23, 0.97, 577.51, 262.87)">S</text><text class="cls-1" transform="matrix(0.96, 0.28, -0.28, 0.96, 604.72, 269.35)">K</text><text class="cls-1" transform="translate(632.66 277.53) rotate(18.64)">E</text><text class="cls-1" transform="translate(653.91 284.47) rotate(21.51)">M</text><circle class="cls-2" cx="445.5" cy="258.5" r="158.5"/><path d="M290.23,160.42l-2-1.52,10.57-14,2,1.52-4.15,7.08-.75,1Zm41.86,4.69c4.34-5.75,3.26-11.13-5.75-17.92l-18.68-14.08,1.89-2.5,20,15.07c10.58,8,10.65,16,5.56,22.79-5.48,7.26-13.25,9.1-22.62,2l-5.44-4.1c-5.18-3.91-10.42-7.85-15.72-11.61l3.63-4.81c5,4,10.21,7.93,15.49,11.91l4,3C323.07,171.43,328.24,170.22,332.09,165.11Zm-21.4-30.26-4.9,4.94-2-1.52,9.06-12,2,1.52-3.39,6.08Z"/><path d="M327.28,115.72l4.05-1-6.68,3.58-1.46-2.05,7.67-5.45,42.06,14.3,3.86,5.45-1.63,1.16Zm0-2.39,4,.24,23,32.39-2.55,1.82Zm16.88-12,12.28-8.71,1.46,2.06-4.57,4.4-1,.72-6.69,3.59Zm1.75,47.44,4.82-4.58,1-.72,6.43-3.4,1.46,2.05-12.28,8.71Zm3.62-51.25,2.56-1.81,24.69,34.8-4.38-.76Z"/><path d="M368.83,90.32,367.89,88l16.31-6.53.93,2.34-7.21,3.91-1.17.46Zm11.85,13.58c-2.41-6-4.84-12.11-7.43-18.07l5.59-2.24c2.19,6,4.63,12.07,7.09,18.22l1.17,2.92c2.41,6,4.84,12.12,7.43,18.08L388.94,125c-2.19-6-4.62-12.06-7.08-18.21ZM391,120.47l7.92-2.15.94,2.34-16.31,6.53-.93-2.34,7.22-3.91Z"/><path d="M403.26,79.45l-8.2.26-.37-2.49,16.75-2.49.41,2.8-7.35,1.73Zm-4.91-2.77,5.95-.89L422,109.36l-1.31.2,6.65-37.2,3.35-.49-7.93,44.33-2.48.37Zm29-.82-6.29.3-.42-2.81L435,71.22l.37,2.49-6.75,2Z"/><path d="M451.1,111.37l-.45,3.44-8.7-1.15.32-2.5,8.21.13Zm-4-37.08.33-2.5,8.7,1.15-.45,3.43-.62-.08Zm3.69,17.65c.85-6.44,1.7-12.93,2.36-19.4l6,.79c-1,6.29-1.87,12.78-2.73,19.35l-.32,2.37c-.94,7.19-1.8,13.69-2.45,20.15l-6-.79c1-6.28,1.87-12.78,2.73-19.34ZM476,106.82l-1.9,11.07-23.44-3.08.41-3.13,21.27,2.79-3.21,2.76,3.39-10.87Zm-8.67-10.1-14.05-1.85.38-2.87,14.05,1.84Zm6.06-21.52,2.38,3.49-20-2.63.41-3.12,22.2,2.91-1,11.18-3.48-.45Zm-7.75,19,1.8-6.51,2.8.37-2,14.81-2.79-.37,0-7.05Z"/><path d="M487,118.87l7.2,3.94-.95,2.33L477,118.55l.95-2.34,7.91,2.19Zm4-19.11c2.44-6,4.9-12.1,7.17-18.18l5.57,2.26c-2.63,6-4.95,11.73-7.75,18.62l-.71,1.75c-2.68,6.6-5.14,12.68-7.41,18.77l-5.57-2.27c2.56-5.83,5-11.9,7.51-18Zm.87-18,.95-2.34,8.13,3.3-1.3,3.21-.58-.23Zm1.62,19.36,7.27,2.94c6.27,2.55,10.67.39,12.59-4.34,2-4.91.46-8.66-5.58-11.11l-7.9-3.21L501,82.71l8,3.23c8.89,3.6,12.58,9.52,9.95,16-2,5-7.73,7.89-15.61,5.44l.37-.39c4,2.1,5.79,5.07,5.23,11l-1.09,10.85L506.44,127l5.71,3.13-.95,2.34a14.48,14.48,0,0,1-4.42-1.12c-3.61-1.46-4.8-3-4.4-6l1.47-10.49c.76-5.2-1.06-6.89-5.88-8.84l-5.52-2.24Z"/><path d="M560.9,116.56l-1.28,1.8-44.45,17.35L511.4,133l1.29-1.79,44.5-17.32Zm-17,26L537,151.38l-23.79-17.1,1.84-2.56,22,15.81-4.65.55,8.49-7.72ZM530,108.18l7-8.82,22.2,16-1.84,2.56L536.91,103.2l4.64-.55-8.48,7.73Z"/><path d="M539.16,148.84l4.72,4.23.8,1,3.67,5.92-1.94,1.61-9.2-11.11Zm42.74-11.13,2.4,2.9-23.57,38.24L557,174.36l21-33.79.92,1.11-37.24,14.23-1.88-2.27ZM554.27,167.1l5.77,5.48.8,1,4.23,6.59-1.94,1.61-10.8-13Zm3.05-18.56,10.8,13-1.6,2.62-12.08-14.58Z"/><path d="M572.35,193.54l3,5.94.4,1.19,1.41,7.13-2.39.81L570,194.35Zm39.33-7.64-1.39,3.78-37.63,12.69-1-3Zm-2.29-.68-.2,4.16L607.68,182l2.39-.8,3,8.91L587.3,226.22,581,228.36l-.64-1.9Zm11,26.53,1,3L581,228.36l2-4Zm-2.11-6.24,4.82,14.26-2.39.81-2.9-5.64-.4-1.19-1.51-7.44Z"/><path d="M585.28,230.76l1.2,6.23,0,1.25-.67,6.94-2.52.1-.58-14.42ZM626,247.83l.15,3.76-41.95,16.12-.23-5.83,37.23-14.11.06,1.45L583,237.94l-.11-2.94Zm-39.8,6.62,1.26,7.86,0,1.25-.64,7.81-2.52.1-.67-16.92Zm13.68-12.91.67,16.92-2.85,1.12L597,240.65Z"/><path d="M581.26,295.5l-3.7,7.32-2.37-.87,6-16.48,2.37.87-1.92,8Zm19.23,3.39c6.1,2.24,12.25,4.5,18.41,6.56l-2.07,5.65c-5.92-2.37-12.07-4.63-18.28-6.91l-3.61-1.33c-6-2.22-11.6-4.26-17.76-6.32l2.07-5.65c5.92,2.37,12.07,4.63,18.28,6.91Zm-8.73,6.41,2.14-5.83,2.72,1-2.46,6.71c-2.66,7.24.15,11.48,5.77,13.55s10.22.15,12.83-7l2.38-6.48,2.72,1-2.79,7.6c-3.58,9.77-10.27,13-17.2,10.45C591.25,323.88,587.35,317.31,591.76,305.3Zm26.76-6.14,2.37.87-3,8.24-3.25-1.19.21-.59Z"/><path d="M582.71,337.11l-4.54,6.39c-3.92,5.52-2.82,10.3,1.34,13.25,4.32,3.07,8.32,2.44,12.09-2.87l4.94-7,2.36,1.68-5,7c-5.55,7.83-12.16,10.06-17.87,6-4.37-3.1-5.89-9.33-1.7-16.44l.3.45c-3,3.43-6.27,4.47-11.87,2.57l-10.32-3.55,2.1-.89-4.35,4.83-2.06-1.46a14.57,14.57,0,0,1,2.1-4.05c2.25-3.17,4.06-4,6.86-2.9L567,344c4.89,1.93,7,.55,10-3.7l3.45-4.86Zm-15.79-10.44-5.49,6.11-2-1.46L569.54,317l2.06,1.46-4,7.19ZM584.6,335c5.29,3.75,10.64,7.55,16,11.15l-3.49,4.91c-5.24-3.94-10.28-7.52-16.34-11.83l-1.54-1.09c-5.81-4.12-11.16-7.92-16.56-11.52l3.48-4.91c5.08,3.84,10.43,7.63,15.83,11.46Zm17.33,5,2.05,1.46-5.08,7.16-2.82-2,.36-.51Z"/><path d="M541.65,356.54,535,361.37l-1.71-1.85,12.91-11.91,1.71,1.86-5.35,6.22Zm15.57,11.79c4.4,4.78,8.84,9.6,13.38,14.24l-4.42,4.08c-4.18-4.81-8.63-9.62-13.11-14.49l-2.14-2.32c-4.4-4.77-8.85-9.59-13.39-14.23l4.43-4.08c4.18,4.8,8.62,9.62,13.11,14.49Zm15.91,8.47,1.71,1.86-12.91,11.9-1.7-1.85,5.35-6.22.92-.85Z"/><path d="M503.21,381.42,497,385.83l-1.11.59-7.62,3-1.2-2.21L502,379.2ZM506.5,399l10.78,20-5,2.71c-2.86-5.69-6-11.46-9.12-17.28l-1.5-2.77c-3.08-5.72-6.2-11.48-9.45-17.11l5.19-2.8C500.24,387.39,503.35,393.16,506.5,399Zm8.41,21.25-7.73,4.17L506,422.19l6.72-4.71.55-.3Zm32.33-17.46-4.91,2.65-31.49-26,1.87-1,5.18,40.19L515,420.2l-5.67-44.93L512,373.8Zm-13.85-37.65-5.34,4-1.11.59-5.85,2.09-1.2-2.22,12.3-6.64Zm13.91,37.62L545,404l-9.42-16.26L524.41,367.1l2.82-1.52Zm5-2.69L545,404l-1.65-3.05.66-.36,7.08-2.74Z"/><path d="M451.69,414.48c-2.48-13.58,5.3-23.39,14.86-25.14s20.26,4.13,22.84,18.27c2.47,13.58-5.43,23.42-14.93,25.15S454.27,428.62,451.69,414.48Zm15.43-22c-8.7,1.58-10.65,11.55-8.95,20.85s7,17.94,15.73,16.36,10.7-11.57,9-20.87S475.82,390.86,467.12,392.45Z"/><path d="M435.31,414.88l-7.8-.84c-6.73-.73-10.37,2.56-10.91,7.63-.57,5.27,1.92,8.46,8.4,9.16l8.48.91-.31,2.89-8.54-.93c-9.54-1-14.71-5.71-14-12.67.58-5.32,5.28-9.7,13.52-9.5L424,412c-4.44-.93-7-3.29-8-9.12L414,392.16l1.81,1.4-6.34-1.45.27-2.5a14.2,14.2,0,0,1,4.55-.15c3.87.42,5.44,1.61,5.88,4.57l1.45,10.5c.7,5.21,2.91,6.33,8.09,6.89l5.92.64Zm1.4-18.86-8-1.82.27-2.51,17.46,1.89-.27,2.51-8.21.06Zm1.37,19.48c-.7,6.46-1.4,13-1.91,19.45l-6-.65c.89-6.5,1.56-12.64,2.35-20l.21-1.88c.76-7.08,1.47-13.6,2-20.08l6,.65c-.87,6.31-1.57,12.83-2.28,19.41Zm4.09,17.57-.27,2.5-8.73-.94.37-3.45.63.07Z"/><path d="M385,390.25c-1.43,3.84.22,6.4,4.59,10.31l1.9,1.72c5.12,4.6,8,9.55,5.72,15.58-2.53,6.79-9.78,8.81-17.24,6a16.56,16.56,0,0,1-8.42-6.69l3.21-7.56,3.53,1.32-1.67,9.53-3-3.35,1.1-2.95c1.83,3.91,3.63,5.72,6.74,6.88,4.59,1.7,8.91.69,10.56-3.74,1.39-3.72-.21-6.81-3.89-10.06l-2-1.74c-6.63-5.9-8.36-10.44-6.29-16,2.59-7,10-9.06,18.05-6.07a24,24,0,0,1,10.24,7.38L404.69,399l-3.53-1.31L403,388l3.2,3.07-1.05,2.84c-2.66-4-4.22-5.94-8.21-7.43C391.37,384.42,386.7,385.64,385,390.25Z"/><path d="M340.07,399l-1.38,2.11-12.07-7.9,1.38-2.11,6.29,3,1.22.42Zm25.62-12.46-33.14,10.55L329.4,395l38.53-11.92Zm-6.16,25.2-1.38,2.11-14.69-9.61,1.38-2.11,7.34,3.67,1.05.69ZM361,368.23l-6.82-3.33-.79-.52-5.78-4.91,1.39-2.11,13.38,8.76Zm2.85,26c-3.55,5.43-7.15,10.92-10.54,16.45l-4.88-3.19c3.64-5.23,7.23-10.71,10.86-16.25l2.62-4c2.66-4.06,6.25-9.55,9.65-15.08l4.88,3.19c-3.65,5.23-7.24,10.71-10.86,16.25Zm-14.55-3.88,2.32-31.25,4.93,3.22-2.38,26.55Zm22.2-14.1L365.21,371l1.38-2.1,14.7,9.61-1.38,2.11-7.34-3.67Z"/><path d="M299.77,364.25l.59-4.2,13,15.44-2.41,2-14.45-17.11,8.3-7.57,2.26,2.68Zm28,2.82c-5,4.19-10,8.42-14.81,12.75l-3.88-4.6c5-4,10-8.19,15-12.46l1.83-1.55c5.54-4.67,10.55-8.9,15.39-13.23l3.88,4.6c-5,4-10,8.19-15.05,12.46Zm-9.43-11.66-5.71,3.6-1.82-2.16,11.41-9.64,1.83,2.16-4.74,5.23Zm.27,27.19-1.93,1.63L311,377.52l2.65-2.24.4.48Zm.17-30.18,9.15,10.83-2.22,1.87-9.14-10.83Zm.4-13.31,8.86-6.9,15.25,18.07-2.41,2L327,335.92l4.23.12-9.83,5.75Zm21.46,13.4,2.65-2.23,5.67,6.71L347,358.61,341,353Z"/><path d="M270.72,307.38l-3.26-8.15,2.35-.94,3.9,7.23.23.58Zm22.08-5.9-21.08,8.41-2.12-5.3c6-2.19,12.08-4.62,18.22-7.07l2.93-1.17c6-2.4,12.12-4.83,18.08-7.41l2.19,5.47C305,296.6,299,299,292.8,301.48Zm-8.46,40-2.06-5.19L311.71,308l.79,2-40.52.5-1.24-3.09L316,307l1.14,2.86Zm0,.06-1-2.45,17.24-7.49L322.41,323l1.19,3Zm2.09,5.24-3.07-7.69,3.22-1.28.28.69,1.91,7.34Zm24.17-46.58L307,293.6l-.46-1.17-2.15-7.92,2.34-.93L313,299.3Zm12.72,31.86L320,326.33l-.47-1.16-1.4-6.06,2.34-.93,5.19,13Z"/><path class="cls-3" d="M354.32,258.69c-10.33-26.62,36.79-83.06,64.32-75.49,15.15,4.16,12.19,24.36,34.73,36.34,17.88,9.51,26.88.6,46.31,12.59,6.44,4,21.37,13.19,23.15,29.35,1.73,15.76-10.15,28-12.86,30.76-12.65,13-32.25,16.93-47.6,11.18-18.1-6.77-14.9-21.24-32.15-28-19.65-7.64-30.45,8.51-54,0C370.43,273.38,358.33,269,354.32,258.69Z"/><path class="cls-4" d="M229.24,180.8,305.64,198c-.88,2.68-2.17,5-5.05,6,2.06,1.8,2.47,4.14,2.79,6.58-1,.2-1.93.41-2.86.56-1.59.25-2.9.85-3.31,2.59l-6.93-.14-34.63-.79a1.43,1.43,0,0,1-1.39-.71c-.39-.67-.89-1.28-1.35-1.92a2.49,2.49,0,0,0-4,0c-1.73-.22-1.73-.22-2.36,1.2l-6.85-1.06c-.06-.31-.09-.59-.16-.86-.32-1.36-1.15-1.78-2.42-1.22-.33.15-.65.33-1,.51l-7.74,4.39-3.61,2c.19.23.31.38.44.52l8.91,9.81a4.19,4.19,0,0,0,.61.58,1.34,1.34,0,0,0,2.23-.45,15.05,15.05,0,0,0,.69-1.63l7.2,1.12c.31,1.32.31,1.32,1.87,1.69a1.49,1.49,0,0,0,1.43,1.57,2.78,2.78,0,0,0,3-1,6.07,6.07,0,0,1,1.25-1.12,1.33,1.33,0,0,1,.94-.21c2.57.66,5.13,1.37,7.7,2.06l15.38,4.17c5.62,1.52,11.23,3.07,16.85,4.57.58.15.93.32,1,1a1.92,1.92,0,0,0,1.3,1.77c.82.34,1.6.8,2.39,1.21,1.06.54,1.15,1.19.28,2a19.84,19.84,0,0,1-5.63,3.83c5.19,5.06,6.7,11.73,8.29,18.4a7.72,7.72,0,0,0,.16-1.42,66.86,66.86,0,0,0-.7-13,6.17,6.17,0,0,1,.61-4.48c2.12-3.29,2.63-7,2.83-10.72,0-.42.09-.83.13-1.25,1.28,3,1.44,6.08,1.74,9.17.84-3.28,1.7-6.55,1.3-10a.72.72,0,0,1,.12-.47,9.93,9.93,0,0,0,1.29-5c.11-1.5.15-3,.4-4.49a26.12,26.12,0,0,0,.64-7.16,1.28,1.28,0,0,1,.12-.53,22.37,22.37,0,0,0,1.06-3.41c.24-1.59.21-3.22.3-4.83-.75,1.55-1.3,3.1-2,4.57a6.87,6.87,0,0,1-3.3,3.32,11,11,0,0,1,1.09,2,28,28,0,0,1,1,4.31c.25,2,.69,4-.32,5.91a10.42,10.42,0,0,1-1.94,3,31.28,31.28,0,0,0-1.1-11.4,4.06,4.06,0,0,1,.73-3.94,8.4,8.4,0,0,0,.86-1.33,23.23,23.23,0,0,0,2.45-9.85c.07-1,.05-2,.07-2.78-.4,1.54-.74,3.29-1.33,4.95a10.6,10.6,0,0,1-3.11,4.23c.05-1.81.08-3.54.15-5.27a2.93,2.93,0,0,1,.24-1.18A11.94,11.94,0,0,0,305.64,198Zm-21.42,4.32c.66-2.25,1.48-4.31,4.28-4.64-2.05-1.93-1.3-3.94-.37-6a8.57,8.57,0,0,0-1.46,2.09,4.29,4.29,0,0,0,.13,3.54C284.81,198,284.08,199.43,284.22,202.28ZM273.94,253c0-1.88.17-3.69,1.76-5-2.07-.76-2.66-2.26-2.24-5.44-1.25,1.49-1.11,3.82.35,5.72C273.06,249.55,273.07,250.49,273.94,253Zm6.13-56.25a4.63,4.63,0,0,0-2.68,3.33,1.33,1.33,0,0,1-.76,1.07,3.36,3.36,0,0,0-1.75,3,4.55,4.55,0,0,1,3.62-2.51C277.64,199.58,279.07,198.33,280.07,196.76Zm-13.8,55.33c-.72-1.75.71-2.69,1.56-4a3.31,3.31,0,0,0-2.47,3.35,2.85,2.85,0,0,0-2.41,2.49A3.85,3.85,0,0,1,266.27,252.09Zm-24.64-46.93-2.31-6.3-.22.07,1.54,6.51Zm3.05-5.8-.29,0-1.25,6.07,1,.11Zm24.13,39.23c-1.16-1.4-.37-2.69.22-4.05a2.72,2.72,0,0,0-1.31,3.44,2.13,2.13,0,0,0-1.39,2.42C266.82,239.36,267.45,238.52,268.81,238.59Zm-22.2-32.25,3.19-5.27-.23-.16-3.77,4.89Z"/><path class="cls-5" d="M305.64,198a11.94,11.94,0,0,1-1.32,6.13,2.93,2.93,0,0,0-.24,1.18c-.07,1.73-.1,3.46-.15,5.27a10.6,10.6,0,0,0,3.11-4.23c.59-1.66.93-3.41,1.33-4.95,0,.77,0,1.78-.07,2.78a23.23,23.23,0,0,1-2.45,9.85,8.4,8.4,0,0,1-.86,1.33,4.06,4.06,0,0,0-.73,3.94,31.28,31.28,0,0,1,1.1,11.4,10.42,10.42,0,0,0,1.94-3c1-1.92.57-3.94.32-5.91a28,28,0,0,0-1-4.31,11,11,0,0,0-1.09-2,6.87,6.87,0,0,0,3.3-3.32c.73-1.47,1.28-3,2-4.57-.09,1.61-.06,3.24-.3,4.83a22.37,22.37,0,0,1-1.06,3.41,1.28,1.28,0,0,0-.12.53,26.12,26.12,0,0,1-.64,7.16c-.25,1.48-.29,3-.4,4.49a9.93,9.93,0,0,1-1.29,5,.72.72,0,0,0-.12.47c.4,3.44-.46,6.71-1.3,10-.3-3.09-.46-6.21-1.74-9.17,0,.42-.1.83-.13,1.25-.2,3.77-.71,7.43-2.83,10.72a6.17,6.17,0,0,0-.61,4.48,66.86,66.86,0,0,1,.7,13,7.72,7.72,0,0,1-.16,1.42c-1.59-6.67-3.1-13.34-8.29-18.4a19.84,19.84,0,0,0,5.63-3.83c.87-.85.78-1.5-.28-2-.79-.41-1.57-.87-2.39-1.21a1.92,1.92,0,0,1-1.3-1.77c-.05-.67-.4-.84-1-1-5.62-1.5-11.23-3.05-16.85-4.57L261,228.06c-2.57-.69-5.13-1.4-7.7-2.06a1.33,1.33,0,0,0-.94.21,6.07,6.07,0,0,0-1.25,1.12,2.78,2.78,0,0,1-3,1,1.49,1.49,0,0,1-1.43-1.57c-1.56-.37-1.56-.37-1.87-1.69l-7.2-1.12a15.05,15.05,0,0,1-.69,1.63,1.34,1.34,0,0,1-2.23.45,4.19,4.19,0,0,1-.61-.58l-8.91-9.81c-.13-.14-.25-.29-.44-.52l3.61-2,7.74-4.39c.31-.18.63-.36,1-.51,1.27-.56,2.1-.14,2.42,1.22.07.27.1.55.16.86l6.85,1.06c.63-1.42.63-1.42,2.36-1.2a2.49,2.49,0,0,1,4,0c.46.64,1,1.25,1.35,1.92a1.43,1.43,0,0,0,1.39.71l34.63.79,6.93.14c.41-1.74,1.72-2.34,3.31-2.59.93-.15,1.85-.36,2.86-.56-.32-2.44-.73-4.78-2.79-6.58C303.47,203,304.76,200.64,305.64,198Zm-2.12,24c-.14-.9-.34-1.8-.42-2.72-.21-2.26,0-4.36,1.79-6.1a8.22,8.22,0,0,0,1.87-4.66c-.12.22-.21.39-.31.55a14.6,14.6,0,0,1-6.41,5.78,56.05,56.05,0,0,0-5,2.82l-.11.16h.2c1.36-.36,2.62-.48,3.49,1a1.32,1.32,0,0,0,1.16.4,1.62,1.62,0,0,1,1.66.49c.69.74,1.28,1.58,1.91,2.38l.08.29.1,0Zm-1.93,2.83.14-.43.3.05c-.26,2.15-.44,4.32-.83,6.45-.18,1-1,1.86-1.12,2.84a26,26,0,0,0,.16,3.16c0,1.31-.22,2.62-.36,4.09a21,21,0,0,0,3.46-6.25c.32-.89.5-1.67-.41-2.24.57-.34,1.09-.62,1.56-1a.83.83,0,0,0,.33-.6,15,15,0,0,0-2-7.61c-.26-.42-.61-.8-1.06-1.39l-.44,2.83-.29,1.85.08,0Zm-6.09-9.08a4.22,4.22,0,0,0-.57-.08c-4.8-.1-9.6-.17-14.4-.29a.91.91,0,0,0-1,.69A30.31,30.31,0,0,0,277.64,230c.13,1.42.14,1.39,1.47,1.73,3.68.94,7.35,1.91,11,2.86,1.12.29,2.25.55,3.47.85a61.21,61.21,0,0,1,1.5-16l-3.54.38C292.36,217.85,294,216.92,295.5,215.76Zm-28.36-.82c-4-.12-7.87-.21-11.72-.37a1,1,0,0,0-1.13.77,24.75,24.75,0,0,0-1.23,8.41c0,.89.35,1.19,1.14,1.39,2.6.64,5.19,1.35,7.78,2l3.55.9A29.4,29.4,0,0,1,267.14,214.94Zm29.59,4.5c-.28,1.25-.52,2.23-.71,3.21a62.65,62.65,0,0,0-1,13.26c0,2,1,3.24,2.7,3.59a6.07,6.07,0,0,0-1.21-6.27,5.59,5.59,0,0,0,.65-.4c.86-.67,1.83-1.32,2-2.46.49-2.93.88-5.86,1.28-8.8a.87.87,0,0,0-.29-.74C299.09,220.34,298,219.93,296.73,219.44Zm-62.16,4.95.21-.08a23.26,23.26,0,0,1,1.55-13.61l-10.23,4.65Zm9.72-.64.53-7.51-6.89-1.07a17.94,17.94,0,0,0-.29,7.18.72.72,0,0,0,.48.43C240.18,223.12,242.25,223.44,244.29,223.75Zm5.47-13.36a31.31,31.31,0,0,0-2.18,16.7l.86.13.88.1c-.84-5.78.31-11.26,2.07-16.68Zm48.35,37.35c2.25-2.17,4.53-6.59,4.28-8.56a14.62,14.62,0,0,1-7.42,7.88,27.68,27.68,0,0,1,5,10.13A21.68,21.68,0,0,0,298.11,247.74Zm-59.8-34.23,7.08,1.1.65-2-5.12-.8C239,211.57,239,211.57,238.31,213.51ZM236,224.72a2.09,2.09,0,0,0,.67-2.09,18.67,18.67,0,0,1,1.55-11.19,1.62,1.62,0,0,0-.18-2A23.45,23.45,0,0,0,236,224.72Zm10.33.21a34.1,34.1,0,0,1,2-13.43c-.56-.25-.82-.12-1,.38-.29,1-.67,2.07-.92,3.12a28.58,28.58,0,0,0-.85,9.3C245.63,224.76,245.72,225.08,246.33,224.93Zm54.59,4.83-.27-.12a9.75,9.75,0,0,1-3,4c1.53,1.8,1.35,4.09,1.53,6.53.17-.38.31-.54.3-.7-.05-1.75-.14-3.5-.2-5.25a2.41,2.41,0,0,1,.13-.93C299.91,232.08,300.42,230.93,300.92,229.76Zm-25.91-12,.38-1.33-5.24-.27-.26,1.23Zm33.32,2.62.28,0c-.06-1.34-.13-2.68-.15-4a3.7,3.7,0,0,1,.26-1.21c.34-.94.73-1.85,1.1-2.78l-.24-.1c-.61,1.33-1.13,2.73-2.65,3.34C308.2,217,308.19,218.69,308.33,220.37Zm-2.4,17.34c.07-.17.21-.33.21-.49-.05-1.25-.14-2.5-.17-3.75a3.46,3.46,0,0,1,.23-1.14c.19-.56.45-1.08.68-1.62l-.11,0-2.1,2.16C305.78,234.22,305.72,236,305.93,237.71Zm-4.09-25.38c-2-.14-3.23.59-3.46,1.9Zm.1-8.19,1,1.69.42-2.68Z"/><path class="cls-6" d="M284.22,202.28c-.14-2.85.59-4.24,2.58-5a4.29,4.29,0,0,1-.13-3.54,8.57,8.57,0,0,1,1.46-2.09c-.93,2.08-1.68,4.09.37,6C285.7,198,284.88,200,284.22,202.28Z"/><path class="cls-6" d="M273.94,253c-.87-2.52-.88-3.46-.13-4.74-1.46-1.9-1.6-4.23-.35-5.72-.42,3.18.17,4.68,2.24,5.44C274.11,249.32,274,251.13,273.94,253Z"/><path class="cls-7" d="M280.07,196.76c-1,1.57-2.43,2.82-1.57,4.84a4.55,4.55,0,0,0-3.62,2.51,3.36,3.36,0,0,1,1.75-3,1.33,1.33,0,0,0,.76-1.07A4.63,4.63,0,0,1,280.07,196.76Z"/><path class="cls-8" d="M266.27,252.09a3.85,3.85,0,0,0-3.32,1.83,2.85,2.85,0,0,1,2.41-2.49,3.31,3.31,0,0,1,2.47-3.35C267,249.4,265.55,250.34,266.27,252.09Z"/><path class="cls-9" d="M241.63,205.16l-1,.28-1.54-6.51.22-.07Z"/><path class="cls-9" d="M244.68,199.36l-.51,6.15-1-.11,1.25-6.07Z"/><path class="cls-10" d="M268.81,238.59c-1.36-.07-2,.77-2.48,1.81a2.13,2.13,0,0,1,1.39-2.42,2.72,2.72,0,0,1,1.31-3.44C268.44,235.9,267.65,237.19,268.81,238.59Z"/><path class="cls-9" d="M246.61,206.34l-.81-.54,3.77-4.89.23.16Z"/><path class="cls-11" d="M295.5,215.76c-1.52,1.16-3.14,2.09-3.93,4l3.54-.38a61.21,61.21,0,0,0-1.5,16c-1.22-.3-2.35-.56-3.47-.85-3.68-1-7.35-1.92-11-2.86-1.33-.34-1.34-.31-1.47-1.73a30.31,30.31,0,0,1,1.86-13.92.91.91,0,0,1,1-.69c4.8.12,9.6.19,14.4.29A4.22,4.22,0,0,1,295.5,215.76ZM284,230.61,289.1,232l0-1.43L284,229.36Zm8.86-9a11.29,11.29,0,0,0-1.07.87c-.2.21-.47.57-.4.77a1.16,1.16,0,0,0,.7.7c.48.14.77-.23.93-.67s.25-.73.4-1.18l-.18-1.42-.23,0Zm-3.46-1.47a5.62,5.62,0,0,0-.92.05c-.92.18-1.49.77-1.38,1.5,0,.28.27.69.48.73a1,1,0,0,0,.83-.37C288.74,221.45,289,220.79,289.35,220.14Zm1.17,1.14c-.43.15-1,.12-.89.82a.68.68,0,0,0,.58.37C290.83,222.28,290.82,221.82,290.52,221.28Z"/><path class="cls-11" d="M267.14,214.94a29.4,29.4,0,0,0-1.61,13.12l-3.55-.9c-2.59-.67-5.18-1.38-7.78-2-.79-.2-1.15-.5-1.14-1.39a24.75,24.75,0,0,1,1.23-8.41,1,1,0,0,1,1.13-.77C259.27,214.73,263.13,214.82,267.14,214.94ZM256.93,224l5.29,1.18.22-.23c-.2-.42-.34-1.15-.62-1.21-1.57-.36-3.17-.55-4.81-.8Z"/><path class="cls-12" d="M296.73,219.44c1.24.49,2.36.9,3.44,1.39a.87.87,0,0,1,.29.74c-.4,2.94-.79,5.87-1.28,8.8-.18,1.14-1.15,1.79-2,2.46a5.59,5.59,0,0,1-.65.4,6.07,6.07,0,0,1,1.21,6.27c-1.74-.35-2.66-1.55-2.7-3.59a62.65,62.65,0,0,1,1-13.26C296.21,221.67,296.45,220.69,296.73,219.44Z"/><path class="cls-13" d="M234.57,224.39l-8.47-9,10.23-4.65a23.26,23.26,0,0,0-1.55,13.61Zm-5.15-9.56,0,.22c1.2-.16,2.41-.38,3.62-.45,1,0,1.61-.32,1.58-1.46Z"/><path class="cls-14" d="M244.29,223.75c-2-.31-4.11-.63-6.17-1a.72.72,0,0,1-.48-.43,17.94,17.94,0,0,1,.29-7.18l6.89,1.07Z"/><path class="cls-15" d="M301.34,224.78l.44-2.83c.45.59.8,1,1.06,1.39a15,15,0,0,1,2,7.61.83.83,0,0,1-.33.6c-.47.34-1,.62-1.56,1,.91.57.73,1.35.41,2.24a21,21,0,0,1-3.46,6.25c.14-1.47.33-2.78.36-4.09a26,26,0,0,1-.16-3.16c.16-1,.94-1.86,1.12-2.84.39-2.13.57-4.3.83-6.45l-.3-.05-.14.43Z"/><path class="cls-16" d="M295,217.68a56.05,56.05,0,0,1,5-2.82,14.6,14.6,0,0,0,6.41-5.78c.1-.16.19-.33.31-.55a8.22,8.22,0,0,1-1.87,4.66c-1.77,1.74-2,3.84-1.79,6.1.08.92.28,1.82.42,2.72l-.17.1c-.63-.8-1.22-1.64-1.91-2.38a1.62,1.62,0,0,0-1.66-.49,1.32,1.32,0,0,1-1.16-.4c-.87-1.49-2.13-1.37-3.49-1Z"/><path class="cls-17" d="M249.76,210.39l1.63.25c-1.76,5.42-2.91,10.9-2.07,16.68l-.88-.1-.86-.13A31.31,31.31,0,0,1,249.76,210.39Z"/><path class="cls-18" d="M298.11,247.74a21.68,21.68,0,0,1,1.85,9.45,27.68,27.68,0,0,0-5-10.13,14.62,14.62,0,0,0,7.42-7.88C302.64,241.15,300.36,245.57,298.11,247.74Z"/><path class="cls-19" d="M238.31,213.51c.7-1.94.7-1.94,2.61-1.65l5.12.8-.65,2Z"/><path class="cls-20" d="M236,224.72a23.45,23.45,0,0,1,2-15.3,1.62,1.62,0,0,1,.18,2,18.67,18.67,0,0,0-1.55,11.19A2.09,2.09,0,0,1,236,224.72Z"/><path class="cls-21" d="M246.33,224.93c-.61.15-.7-.17-.74-.63a28.58,28.58,0,0,1,.85-9.3c.25-1.05.63-2.08.92-3.12.14-.5.4-.63,1-.38A34.1,34.1,0,0,0,246.33,224.93Z"/><path class="cls-22" d="M300.92,229.76c-.5,1.17-1,2.32-1.49,3.49a2.41,2.41,0,0,0-.13.93c.06,1.75.15,3.5.2,5.25,0,.16-.13.32-.3.7-.18-2.44,0-4.73-1.53-6.53a9.75,9.75,0,0,0,3-4Z"/><path class="cls-23" d="M275,217.75l-5.12-.37.26-1.23,5.24.27Z"/><path class="cls-24" d="M308.33,220.37c-.14-1.68-.13-3.41-1.4-4.79,1.52-.61,2-2,2.65-3.34l.24.1c-.37.93-.76,1.84-1.1,2.78a3.7,3.7,0,0,0-.26,1.21c0,1.34.09,2.68.15,4Z"/><path class="cls-25" d="M305.93,237.71c-.21-1.73-.15-3.49-1.26-4.86l2.1-2.16.11,0c-.23.54-.49,1.06-.68,1.62a3.46,3.46,0,0,0-.23,1.14c0,1.25.12,2.5.17,3.75C306.14,237.38,306,237.54,305.93,237.71Z"/><path class="cls-26" d="M301.84,212.33l-3.46,1.9C298.61,212.92,299.86,212.19,301.84,212.33Z"/><path class="cls-23" d="M301.94,204.14l1.46-1-.42,2.68Z"/><path class="cls-12" d="M301.34,224.78l.25.06-.46,1.81-.08,0Z"/><path class="cls-16" d="M303.52,222v.36l-.1,0-.08-.29Z"/><path class="cls-16" d="M295.13,217.83h-.2l.11-.16Z"/><path class="cls-27" d="M284,230.61l0-1.25,5.18,1.17,0,1.43Z"/><path class="cls-28" d="M292.81,221.61l.15-1,.23,0,.18,1.42c-.15.45-.27.82-.4,1.18s-.45.81-.93.67a1.16,1.16,0,0,1-.7-.7c-.07-.2.2-.56.4-.77A11.29,11.29,0,0,1,292.81,221.61Z"/><path class="cls-28" d="M289.35,220.14c-.33.65-.61,1.31-1,1.91a1,1,0,0,1-.83.37c-.21,0-.44-.45-.48-.73-.11-.73.46-1.32,1.38-1.5A5.62,5.62,0,0,1,289.35,220.14Z"/><path class="cls-29" d="M290.52,221.28c.3.54.31,1-.31,1.19a.68.68,0,0,1-.58-.37C289.5,221.4,290.09,221.43,290.52,221.28Z"/><path class="cls-27" d="M256.93,224,257,223c1.64.25,3.24.44,4.81.8.28.06.42.79.62,1.21l-.22.23Z"/><path class="cls-30" d="M229.42,214.83l5.22-1.69c0,1.14-.6,1.41-1.58,1.46-1.21.07-2.42.29-3.62.45Z"/></svg>