<?xml version="1.0" ?><!DOCTYPE svg  PUBLIC '-//W3C//DTD SVG 1.1//EN'  'http://www.w3.org/Graphics/SVG/1.1/DTD/svg11.dtd'><svg enable-background="new 0 0 512 512" height="512px" id="Layer_1" version="1.1" viewBox="0 0 512 512" width="512px" xml:space="preserve" xmlns="http://www.w3.org/2000/svg" xmlns:xlink="http://www.w3.org/1999/xlink"><g><g><g><g><circle cx="256" cy="256" fill="#E36A5C" r="256"/></g></g><g><g><g><polygon fill="#2A3141" points="373.431,186.769 255.841,117.846 138.327,186.769 134.554,192.308 134.554,325.846        252.308,393.869 259.693,393.869 377.015,325.846 377.015,192.308      "/></g></g><g><g><polygon fill="#2A3141" points="255.894,254.499 259.693,260 377.231,192.308 373.538,186.769 255.894,254.499      "/></g></g><g><g><polygon fill="#353C4A" points="134.769,192.308 138.462,186.769 255.894,254.499 252.308,260 134.769,192.308      "/></g></g><g><g><polygon fill="#2A3141" points="252.092,259.715 259.477,259.715 259.477,393.869 252.092,393.869 252.092,259.715      "/></g></g><g><g><polygon fill="#3B414E" points="252.092,394.154 134.554,325.846 134.554,192.308 252.092,260      "/></g></g><g><g><polygon fill="#242C3C" points="259.477,394.154 377.015,325.846 377.015,192.308 259.477,260      "/></g></g><g><g><polygon fill="#2F3645" points="255.894,254.499 138.462,186.769 255.894,117.846 373.538,186.769      "/></g></g><g><g enable-background="new    "><defs><polygon enable-background="new    " id="SVGID_1_" points="232.629,185.847 255.617,170.154 278.754,185.847         255.767,201.541       "/></defs><clipPath id="SVGID_2_"><use overflow="visible" xlink:href="#SVGID_1_"/></clipPath><g clip-path="url(#SVGID_2_)"><g><g><path d="M267.187,178.002c-6.392-4.335-16.715-4.335-23.062-0.002c-6.351,4.335-6.317,11.359,0.075,15.695          c6.389,4.334,16.712,4.334,23.063-0.002C273.61,189.359,273.576,182.335,267.187,178.002L267.187,178.002z" fill="#FFFFFF"/></g></g></g></g></g><g><g><path d="M290.843,332.709c-6.156,3.556-11.129,12.166-11.108,19.237c0.021,7.074,5.023,9.927,11.181,6.372       c6.153-3.553,11.125-12.164,11.104-19.239C302,332.01,296.996,329.157,290.843,332.709L290.843,332.709z" fill="#FFFFFF"/></g></g><g><g><path d="M347.239,229.376c-6.153,3.552-11.125,12.164-11.104,19.239c0.021,7.07,5.024,9.921,11.178,6.369       c6.156-3.554,11.128-12.166,11.108-19.237C358.4,228.673,353.396,225.821,347.239,229.376L347.239,229.376z" fill="#FFFFFF"/></g></g><g><g><path d="M165.738,229.037c-6.124-3.535-11.104-0.698-11.125,6.34c-0.021,7.041,4.929,15.612,11.052,19.148       c6.127,3.537,11.108,0.698,11.129-6.343C176.813,241.146,171.865,232.576,165.738,229.037L165.738,229.037z" fill="#FFFFFF"/></g></g><g><g><path d="M220.589,332.438c-6.125-3.535-11.104-0.697-11.125,6.339c-0.021,7.037,4.927,15.613,11.051,19.147       c6.128,3.539,11.108,0.696,11.128-6.341S226.717,335.975,220.589,332.438L220.589,332.438z" fill="#FFFFFF"/></g></g><g><g><path d="M193.371,280.791c-6.124-3.536-11.104-0.698-11.124,6.339c-0.02,7.042,4.928,15.611,11.051,19.147       c6.129,3.537,11.109,0.7,11.129-6.341C204.447,292.899,199.498,284.329,193.371,280.791L193.371,280.791z" fill="#FFFFFF"/></g></g><g><g><polygon fill="#2A3141" points="252.308,259.715 255.894,254.213 259.693,259.715      "/></g></g></g></g><g><g opacity="0.6"><g><path d="M377.015,325.846l-117.538,68.309v-0.285l0,0h-7.385v0.285l-81.657-47.519l-35.935-20.79L314.061,505.38      c92.967-21.568,166.42-93.782,189.907-185.998L377.015,192.524V325.846z" fill="#E36A5C"/></g></g><g><g><polygon fill="#2A3141" points="134.554,192.308 138.34,186.769 255.784,117.862 255.784,117.846 138.299,186.769       134.554,192.308 134.554,325.846 134.554,325.728     "/></g></g><g><g><polygon fill="#2A3141" points="259.496,259.715 259.477,259.715 259.477,393.869 259.477,393.869 259.477,260     "/></g></g><g><g><polygon fill="#2A3141" points="134.554,325.728 134.446,325.846 134.446,325.846 170.381,346.636 134.554,325.846     "/></g></g><g><g><polygon fill="#2A3141" points="377.094,192.387 377.231,192.308 377.173,192.221 377.015,192.308     "/></g></g><g><g><polygon fill="#2A3141" points="377.015,192.432 377.094,192.387 377.015,192.308 377.015,192.308     "/></g></g><g><g><polygon fill="#2A3141" points="373.46,186.815 377.015,192.308 377.015,192.308 377.173,192.221 373.538,186.769     "/></g></g><g><g><polygon fill="#2A3141" points="377.015,192.308 377.015,192.308 377.015,192.308     "/></g></g><g><g><polygon fill="#2A3141" points="258.297,257.693 259.693,259.715 259.496,259.715 259.693,260 377.015,192.432 377.015,192.308           "/></g></g><g><g><polygon fill="#2A3141" points="258.297,257.693 377.015,192.308 377.015,192.308 373.46,186.815 256.036,254.417     "/></g></g><g><g><polygon fill="#353C4A" points="252.092,259.715 252.308,259.715 255.759,254.421 138.462,186.769 134.769,192.308       252.092,259.876     "/></g></g><g><g><polygon fill="#2A3141" points="252.092,260 252.092,260.991 254.626,259.715 252.493,259.715     "/></g></g><g><g><polygon fill="#2A3141" points="254.626,259.715 252.092,260.991 252.092,393.869 259.477,393.869 259.477,259.715     "/></g></g><g><g><polygon fill="#2A3141" points="252.092,259.715 252.092,259.876 252.308,260 252.493,259.715 252.308,259.715     "/></g></g><g><g><polygon fill="#3B414E" points="252.092,393.744 170.435,346.636 252.092,394.154 252.092,393.869 252.092,393.869     "/></g></g><g><g><g><path d="M252.092,261.11l-50.852,28.008c1.979,3.448,3.197,7.321,3.187,10.818       c-0.02,7.041-5,9.878-11.129,6.341c-3.11-1.795-5.912-4.891-7.918-8.424l-50.61,27.874v0.118l35.773,20.79l81.549,47.108       V261.11z M220.515,357.924c-6.124-3.534-11.072-12.11-11.051-19.147c0.02-7.036,5-9.874,11.125-6.339       c6.128,3.537,11.076,12.108,11.055,19.146S226.644,361.463,220.515,357.924z" fill="#3B414E"/></g></g></g><g><g><g><path d="M134.769,192.308v133.42l50.61-27.874c-1.945-3.423-3.143-7.258-3.133-10.724       c0.02-7.037,5-9.875,11.124-6.339c3.083,1.78,5.866,4.835,7.869,8.327l50.852-28.008v-1.234L134.769,192.308z M165.665,254.525       c-6.124-3.536-11.073-12.107-11.052-19.148c0.021-7.039,5.001-9.875,11.125-6.34c6.128,3.539,11.076,12.109,11.056,19.146       C176.773,255.224,171.792,258.063,165.665,254.525z" fill="#3B414E"/></g></g></g><g><g><polygon fill="#3B414E" points="252.092,393.869 252.308,393.869 252.092,393.744     "/></g></g><g><g><polygon fill="#3B414E" points="252.092,259.876 252.092,261.11 252.092,260.991 252.092,260     "/></g></g><g><g><polygon fill="#3B414E" points="252.092,261.11 252.092,393.744 252.092,393.869 252.092,260.991     "/></g></g><g><g><polygon fill="#242C3C" points="377.015,192.432 377.015,325.846 259.477,393.869 259.477,394.154 377.015,325.846       377.015,192.524 376.987,192.387     "/></g></g><g><g><polygon fill="#242C3C" points="377.231,192.524 377.231,192.308 377.094,192.387     "/></g></g><g><g><g><path d="M377.015,192.432L259.693,260v133.869l117.322-68.023V192.432z M290.915,358.318       c-6.157,3.555-11.16,0.702-11.181-6.372c-0.021-7.071,4.952-15.682,11.108-19.237c6.153-3.552,11.157-0.699,11.177,6.37       C302.04,346.154,297.069,354.766,290.915,358.318z M347.312,254.984c-6.153,3.552-11.157,0.701-11.178-6.369       c-0.021-7.076,4.951-15.688,11.104-19.239c6.157-3.555,11.161-0.703,11.182,6.372       C358.44,242.818,353.468,251.43,347.312,254.984z" fill="#242C3C"/></g></g></g><g><g><polygon fill="#2F3645" points="373.46,186.815 373.538,186.769 255.894,117.846 255.867,117.862 373.431,186.769     "/></g></g><g><g><path d="M255.767,201.541l11.492-7.846c-6.351,4.333-16.672,4.333-23.059,0      c-6.393-4.335-6.426-11.359-0.075-15.695c6.347-4.333,16.67-4.333,23.062,0.002c6.387,4.331,6.423,11.352,0.083,15.685      l11.484-7.84l-23.137-15.693l-22.988,15.693L255.767,201.541z" fill="#2F3645"/></g></g><g><g><g><path d="M255.759,254.421l0.135-0.208l0.142,0.204l117.424-67.602l-0.029-0.046l-117.563-68.907       l-117.406,68.907L255.759,254.421z M278.754,185.847l-11.484,7.84l-0.011,0.007l-11.492,7.846l-23.138-15.694l22.988-15.693       L278.754,185.847z" fill="#2F3645"/></g></g></g><g><g><path d="M267.187,178.002c-6.392-4.335-16.715-4.335-23.062-0.002c-6.351,4.335-6.317,11.359,0.075,15.695      c6.387,4.333,16.708,4.333,23.059,0l0.011-0.007C273.61,189.354,273.573,182.333,267.187,178.002z" fill="#FFFFFF"/></g></g><g><g><path d="M290.843,332.709c-6.156,3.556-11.129,12.166-11.108,19.237c0.021,7.074,5.023,9.927,11.181,6.372      c6.153-3.553,11.125-12.164,11.104-19.239C302,332.01,296.996,329.157,290.843,332.709z" fill="#FFFFFF"/></g></g><g><g><path d="M347.239,229.376c-6.153,3.552-11.125,12.164-11.104,19.239c0.021,7.07,5.024,9.921,11.178,6.369      c6.156-3.554,11.128-12.166,11.108-19.237C358.4,228.673,353.396,225.821,347.239,229.376z" fill="#FFFFFF"/></g></g><g><g><path d="M165.738,229.037c-6.124-3.535-11.104-0.698-11.125,6.34c-0.021,7.041,4.929,15.612,11.052,19.148      c6.127,3.537,11.108,0.698,11.129-6.343C176.813,241.146,171.865,232.576,165.738,229.037z" fill="#FFFFFF"/></g></g><g><g><path d="M220.589,332.438c-6.125-3.535-11.104-0.697-11.125,6.339c-0.021,7.037,4.927,15.613,11.051,19.147      c6.128,3.539,11.108,0.696,11.128-6.341S226.717,335.975,220.589,332.438z" fill="#FFFFFF"/></g></g><g><g><path d="M193.371,280.791c-6.124-3.536-11.104-0.698-11.124,6.339c-0.01,3.466,1.188,7.301,3.133,10.724      l15.86-8.735C199.237,285.626,196.454,282.571,193.371,280.791z" fill="#FFFFFF"/></g></g><g><g><path d="M193.298,306.277c6.129,3.537,11.109,0.7,11.129-6.341c0.01-3.497-1.208-7.37-3.187-10.818l-15.86,8.735      C187.386,301.387,190.188,304.482,193.298,306.277z" fill="#FFFFFF"/></g></g><g><g><polygon fill="#2A3141" points="255.894,254.499 252.493,259.715 254.626,259.715 258.155,257.771     "/></g></g><g><g><polygon fill="#2A3141" points="254.626,259.715 259.477,259.715 259.496,259.715 258.155,257.771     "/></g></g><g><g><polygon fill="#2A3141" points="258.155,257.771 258.297,257.693 256.036,254.417 255.894,254.499     "/></g></g><g><g><polygon fill="#2A3141" points="258.297,257.693 258.155,257.771 259.496,259.715 259.693,259.715     "/></g></g><g><g><polygon fill="#2A3141" points="252.493,259.715 255.894,254.499 255.759,254.421 252.308,259.715     "/></g></g><g><g><polygon fill="#2A3141" points="256.036,254.417 255.894,254.213 255.759,254.421 255.894,254.499     "/></g></g></g></g></svg>